name rise30.6535peak61.5555fall82.9339.mot
datacolumns 19
datarows 26
range 23.30990500000000 23.35157500000000
endheader
time	ground_force1_vx	ground_force1_vy	ground_force1_vz	ground_force1_px	ground_force1_py	ground_force1_pz	ground_force2_vx	ground_force2_vy	ground_force2_vz	ground_force2_px	ground_force2_py	ground_force2_pz	ground_torque1_x	ground_torque1_y	ground_torque1_z	ground_torque2_x	ground_torque2_y	ground_torque2_z	
23.30990500000000	-43.64953700000000	826.68413799999996	56.71810700000000	0.16463000000000	0.00000000000000	0.10795100000000	0.00000000000000	0.00000000000000	0.00000000000000	0.00000000000000	0.00000000000000	0.00000000000000	0.00000000000000	27.34478400000000	0.00000000000000	0.00000000000000	0.00000000000000	0.00000000000000	
23.31157200000000	-44.36868400000000	825.42838800000004	56.62868400000000	0.16365400000000	0.00000000000000	0.10792700000000	0.00000000000000	0.00000000000000	0.00000000000000	0.00000000000000	0.00000000000000	0.00000000000000	0.00000000000000	27.33434800000000	0.00000000000000	0.00000000000000	0.00000000000000	0.00000000000000	
23.31323800000000	-45.10688100000000	824.05262900000002	56.51926600000000	0.16267600000000	0.00000000000000	0.10790000000000	0.00000000000000	0.00000000000000	0.00000000000000	0.00000000000000	0.00000000000000	0.00000000000000	0.00000000000000	27.32248000000000	0.00000000000000	0.00000000000000	0.00000000000000	0.00000000000000	
23.31490600000000	-45.86401700000000	822.55460900000003	56.38930000000000	0.16169600000000	0.00000000000000	0.10787000000000	-1.97596000000000	3.59167100000000	0.93790300000000	0.00000000000000	0.00000000000000	0.00000000000000	0.00000000000000	27.30918300000000	0.00000000000000	0.00000000000000	0.24628500000000	0.00000000000000	
23.31657300000000	-46.63990100000000	820.93205300000000	56.23825300000000	0.16071700000000	0.00000000000000	0.10783600000000	-3.21466500000000	6.83287500000000	1.62621200000000	0.00000000000000	0.00000000000000	0.00000000000000	0.00000000000000	27.29444800000000	0.00000000000000	0.00000000000000	0.44203200000000	0.00000000000000	
23.31823600000000	-47.43426100000000	819.18266700000004	56.06561200000000	0.15974000000000	0.00000000000000	0.10779900000000	-4.62711400000000	10.73761300000000	2.43105900000000	0.00000000000000	0.00000000000000	0.00000000000000	0.00000000000000	27.27826100000000	0.00000000000000	0.00000000000000	0.67362200000000	0.00000000000000	
23.31991100000000	-48.24674500000000	817.30413899999996	55.87088900000000	0.15876500000000	0.00000000000000	0.10775700000000	-6.17393300000000	15.26144800000000	3.33581300000000	0.00000000000000	0.00000000000000	0.00000000000000	0.00000000000000	27.26059300000000	0.00000000000000	0.00000000000000	0.93707700000000	0.00000000000000	
23.32157800000000	-49.07691800000000	815.29414099999997	55.65362000000000	0.15779600000000	0.00000000000000	0.10771200000000	-7.80501400000000	20.33041700000000	4.31756700000000	0.00000000000000	0.00000000000000	0.00000000000000	0.00000000000000	27.24140900000000	0.00000000000000	0.00000000000000	1.22661400000000	0.00000000000000	
23.32323600000000	-49.92425900000000	813.15033300000005	55.41336800000000	0.15683200000000	0.00000000000000	0.10766200000000	-9.46281100000000	25.84660100000000	5.34865300000000	0.35212200000000	0.00000000000000	-0.07017100000000	0.00000000000000	27.22065900000000	0.00000000000000	0.00000000000000	2.75439400000000	0.00000000000000	
23.32490900000000	-50.78816000000000	810.87036400000000	55.14972500000000	0.15587600000000	0.00000000000000	0.10760700000000	-11.08656800000000	31.69632300000000	6.39870200000000	0.35484000000000	0.00000000000000	-0.07072600000000	0.00000000000000	27.19828100000000	0.00000000000000	0.00000000000000	3.34066400000000	0.00000000000000	
23.32657500000000	-51.66792800000000	808.45187599999997	54.86231100000000	0.15492800000000	0.00000000000000	0.10754800000000	-12.61692000000000	37.75990300000000	7.43697200000000	0.35762100000000	0.00000000000000	-0.07122900000000	0.00000000000000	27.17419900000000	0.00000000000000	0.00000000000000	3.93692400000000	0.00000000000000	
23.32824000000000	-52.56278000000000	805.89251100000001	54.55077900000000	0.15399000000000	0.00000000000000	0.10748500000000	-14.00024900000000	43.92157100000000	8.43463600000000	0.36045200000000	0.00000000000000	-0.07168600000000	0.00000000000000	27.14832400000000	0.00000000000000	0.00000000000000	4.52898200000000	0.00000000000000	
23.32990900000000	-53.47184500000000	803.18991400000004	54.21481800000000	0.15306400000000	0.00000000000000	0.10741600000000	-15.19223900000000	50.07822900000000	9.36672600000000	0.36332200000000	0.00000000000000	-0.07210400000000	0.00000000000000	27.12055200000000	0.00000000000000	0.00000000000000	5.10397200000000	0.00000000000000	
23.33157500000000	-54.39416000000000	800.34173599999997	53.85414800000000	0.15215000000000	0.00000000000000	0.10734200000000	-16.16027400000000	56.14613600000000	10.21353200000000	0.36622000000000	0.00000000000000	-0.07248900000000	0.00000000000000	27.09076300000000	0.00000000000000	0.00000000000000	5.65112900000000	0.00000000000000	
23.33324200000000	-55.32867700000000	797.34564200000000	53.46852900000000	0.15124900000000	0.00000000000000	0.10726300000000	-16.88456200000000	62.06506200000000	10.96137900000000	0.36913600000000	0.00000000000000	-0.07284400000000	0.00000000000000	27.05882200000000	0.00000000000000	0.00000000000000	6.16228400000000	0.00000000000000	
23.33490200000000	-56.27425200000000	794.19931499999996	53.05775800000000	0.15036400000000	0.00000000000000	0.10717900000000	-17.35803600000000	67.79986100000001	11.60279900000000	0.37206300000000	0.00000000000000	-0.07317500000000	0.00000000000000	27.02457800000000	0.00000000000000	0.00000000000000	6.63207800000000	0.00000000000000	
23.33657000000000	-57.22965700000000	790.90046400000006	52.62167300000000	0.14949400000000	0.00000000000000	0.10709000000000	-17.58524100000000	73.33972900000001	12.13615300000000	0.37498900000000	0.00000000000000	-0.07348300000000	0.00000000000000	26.98786300000000	0.00000000000000	0.00000000000000	7.05791200000000	0.00000000000000	
23.33824200000000	-58.19356900000000	787.44682999999998	52.16015200000000	0.14864200000000	0.00000000000000	0.10699500000000	-17.58044800000000	78.69558000000001	12.56485500000000	0.37790900000000	0.00000000000000	-0.07377300000000	0.00000000000000	26.94849400000000	0.00000000000000	0.00000000000000	7.43968400000000	0.00000000000000	
23.33990600000000	-59.16458100000000	783.83619099999999	51.67311900000000	0.14780700000000	0.00000000000000	0.10689400000000	-17.36529500000000	83.89608500000000	12.89630300000000	0.38081400000000	0.00000000000000	-0.07404600000000	0.00000000000000	26.90627100000000	0.00000000000000	0.00000000000000	7.77936000000000	0.00000000000000	
23.34157400000000	-60.14119600000000	780.06637000000001	51.16054200000000	0.14699100000000	0.00000000000000	0.10678800000000	-16.96622400000000	88.98294300000001	13.14067500000000	0.38369700000000	0.00000000000000	-0.07430600000000	0.00000000000000	26.86097800000000	0.00000000000000	0.00000000000000	8.08044900000000	0.00000000000000	
23.34324300000000	-61.12182900000000	776.13524399999994	50.62243400000000	0.14619400000000	0.00000000000000	0.10667600000000	-16.41197300000000	94.00589100000001	13.30970700000000	0.38655200000000	0.00000000000000	-0.07455300000000	0.00000000000000	26.81238200000000	0.00000000000000	0.00000000000000	8.34743600000000	0.00000000000000	
23.34490500000000	-62.10481200000000	772.04075100000000	50.05885900000000	0.14541700000000	0.00000000000000	0.10655800000000	-15.73129900000000	99.01792500000001	13.41555500000000	0.38937100000000	0.00000000000000	-0.07478900000000	0.00000000000000	26.76023900000000	0.00000000000000	0.00000000000000	8.58523300000000	0.00000000000000	
23.34657200000000	-63.08839300000000	767.78089699999998	49.46992600000000	0.14466100000000	0.00000000000000	0.10643400000000	-14.95109200000000	104.07105600000000	13.46981900000000	0.39215000000000	0.00000000000000	-0.07501700000000	0.00000000000000	26.70428500000000	0.00000000000000	0.00000000000000	8.79867800000000	0.00000000000000	
23.34824300000000	-64.07074100000000	763.35376399999996	48.85580000000000	0.14392500000000	0.00000000000000	0.10630500000000	-14.09494800000000	109.21286000000001	13.48278100000000	0.39488200000000	0.00000000000000	-0.07523700000000	0.00000000000000	26.64424500000000	0.00000000000000	0.00000000000000	8.99213000000000	0.00000000000000	
23.34990500000000	-65.04994400000000	758.75752499999999	48.21669200000000	0.14321100000000	0.00000000000000	0.10617000000000	-13.18223400000000	114.48392900000000	13.46286600000000	0.39756300000000	0.00000000000000	-0.07545100000000	0.00000000000000	26.57983100000000	0.00000000000000	0.00000000000000	9.16915800000000	0.00000000000000	
23.35157500000000	-66.02401600000000	753.99044400000002	47.55287000000000	0.14251900000000	0.00000000000000	0.10602800000000	-12.22763800000000	119.91628100000000	13.41635000000000	0.40018600000000	0.00000000000000	-0.07565900000000	0.00000000000000	26.51074300000000	0.00000000000000	0.00000000000000	9.33234700000000	0.00000000000000	
